Disc Title:     Monster House – Blu-ray 3D™
Disc Label:     Monster.House.3D.2006.BluRay.MULTI.COMPLETE-INSECTS
Disc Size:      41,878,654,305 bytes
Protection:     AACS
Extras:         BD-Java
BDInfo:         0.7.5.5

Notes:          

BDINFO HOME:
  Cinema Squid (old)
    http://www.cinemasquid.com/blu-ray/tools/bdinfo
  UniqProject GitHub (new)
   https://github.com/UniqProject/BDInfo

INCLUDES FORUMS REPORT FOR:
  AVS Forum Blu-ray Audio and Video Specifications Thread
    http://www.avsforum.com/avs-vb/showthread.php?t=1155731


********************
PLAYLIST: 00001.MPLS
********************

<--- BEGIN FORUMS PASTE --->
[code]
                                                                                                                Total   Video                                             
Title                                                           Codec   Length  Movie Size      Disc Size       Bitrate Bitrate Main Audio Track                          Secondary Audio Track
-----                                                           ------  ------- --------------  --------------  ------- ------- ------------------                        ---------------------
00001.MPLS                                                      AVC     1:30:38 25,145,776,128  41,878,654,305  36.99   24.91   DTS-HD Master 5.1 2603Kbps (48kHz/24-bit) 
[/code]

[code]

DISC INFO:

Disc Title:     Monster House – Blu-ray 3D™
Disc Label:     Monster.House.3D.2006.BluRay.MULTI.COMPLETE-INSECTS
Disc Size:      41,878,654,305 bytes
Protection:     AACS
Extras:         BD-Java
BDInfo:         0.7.5.5

PLAYLIST REPORT:

Name:                   00001.MPLS
Length:                 1:30:38.432 (h:m:s.ms)
Size:                   25,145,776,128 bytes
Total Bitrate:          36.99 Mbps

VIDEO:

Codec                   Bitrate             Description     
-----                   -------             -----------     
MPEG-4 AVC Video        24912 kbps          1080p / 23.976 fps / 16:9 / High Profile 4.1

AUDIO:

Codec                           Language        Bitrate         Description     
-----                           --------        -------         -----------     
DTS-HD Master Audio             English         2603 kbps       5.1 / 48 kHz /  2603 kbps / 24-bit (DTS Core: 5.1 / 48 kHz /  1509 kbps / 24-bit)
DTS-HD Master Audio             French          2619 kbps       5.1 / 48 kHz /  2619 kbps / 24-bit (DTS Core: 5.1 / 48 kHz /  1509 kbps / 24-bit)
DTS-HD Master Audio             German          2602 kbps       5.1 / 48 kHz /  2602 kbps / 24-bit (DTS Core: 5.1 / 48 kHz /  1509 kbps / 24-bit)
Dolby Digital Audio             Arabic          448 kbps        5.1 / 48 kHz /   448 kbps / DN -31dB
Dolby Digital Audio             Dutch           448 kbps        5.1 / 48 kHz /   448 kbps / DN -31dB
Dolby Digital Audio             Turkish         448 kbps        5.1 / 48 kHz /   448 kbps / DN -31dB
Dolby Digital Audio             English         192 kbps        2.0 / 48 kHz /   192 kbps / DN -31dB / Dolby Surround

SUBTITLES:

Codec                           Language        Bitrate         Description     
-----                           --------        -------         -----------     
Presentation Graphics           English         25.240 kbps                     
Presentation Graphics           French          18.748 kbps                     
Presentation Graphics           German          28.142 kbps                     
Presentation Graphics           Arabic          13.565 kbps                     
Presentation Graphics           Dutch           24.627 kbps                     
Presentation Graphics           Turkish         26.483 kbps                     
Presentation Graphics           French          54.109 kbps                     
Presentation Graphics           German          64.210 kbps                     
Presentation Graphics           Dutch           57.958 kbps                     

FILES:

Name            Time In         Length          Size            Total Bitrate   
----            -------         ------          ----            -------------   
00105.M2TS      0:00:00.000     0:47:02.945     13,114,748,928  37,166          
00107.M2TS      0:47:02.945     0:43:35.487     12,031,027,200  36,799          

CHAPTERS:

Number          Time In         Length          Avg Video Rate  Max 1-Sec Rate  Max 1-Sec Time  Max 5-Sec Rate  Max 5-Sec Time  Max 10Sec Rate  Max 10Sec Time  Avg Frame Size  Max Frame Size  Max Frame Time  
------          -------         ------          --------------  --------------  --------------  --------------  --------------  --------------  --------------  --------------  --------------  --------------  
1               0:00:00.000     0:06:34.769     24,831 kbps     47,135 kbps     00:00:40.331    30,577 kbps     00:00:02.502    29,199 kbps     00:00:02.502    129,446 bytes   762,352 bytes   00:00:40.415    
2               0:06:34.769     0:07:01.504     25,157 kbps     39,770 kbps     00:10:29.211    30,002 kbps     00:09:30.486    28,139 kbps     00:09:30.611    131,159 bytes   666,514 bytes   00:08:07.361    
3               0:13:36.273     0:03:09.480     24,712 kbps     35,953 kbps     00:14:04.176    27,922 kbps     00:13:52.081    27,247 kbps     00:13:47.076    128,835 bytes   648,329 bytes   00:14:52.057    
4               0:16:45.754     0:03:38.468     24,508 kbps     38,228 kbps     00:18:37.366    28,323 kbps     00:19:59.907    26,529 kbps     00:17:17.411    127,773 bytes   544,873 bytes   00:17:48.233    
5               0:20:24.223     0:03:35.465     24,755 kbps     36,839 kbps     00:21:06.682    30,006 kbps     00:21:06.682    27,214 kbps     00:21:06.682    129,059 bytes   635,148 bytes   00:21:20.946    
6               0:23:59.688     0:02:36.865     25,212 kbps     45,805 kbps     00:26:03.812    29,315 kbps     00:26:00.267    28,086 kbps     00:26:08.358    131,444 bytes   599,013 bytes   00:26:35.051    
7               0:26:36.553     0:06:27.720     25,386 kbps     43,941 kbps     00:31:50.575    31,332 kbps     00:31:47.572    29,823 kbps     00:31:30.013    132,353 bytes   710,052 bytes   00:31:55.747    
8               0:33:04.273     0:06:13.122     24,565 kbps     38,965 kbps     00:38:31.642    28,555 kbps     00:37:46.973    27,509 kbps     00:37:42.009    128,073 bytes   632,403 bytes   00:38:18.045    
9               0:39:17.396     0:07:03.631     24,930 kbps     40,733 kbps     00:45:15.546    31,612 kbps     00:45:11.417    29,950 kbps     00:44:50.729    129,972 bytes   728,356 bytes   00:46:15.564    
10              0:46:21.028     0:07:20.439     24,950 kbps     49,534 kbps     00:49:11.281    32,531 kbps     00:49:07.235    29,304 kbps     00:50:09.464    130,080 bytes   658,421 bytes   00:49:01.021    
11              0:53:41.468     0:06:41.943     25,078 kbps     42,544 kbps     00:54:50.537    31,279 kbps     00:59:42.745    29,710 kbps     01:00:03.266    130,745 bytes   649,892 bytes   00:56:05.403    
12              1:00:23.411     0:05:17.525     24,431 kbps     41,265 kbps     01:02:21.654    28,525 kbps     01:02:18.568    26,598 kbps     01:02:29.537    127,373 bytes   626,740 bytes   01:03:44.695    
13              1:05:40.936     0:02:54.507     25,481 kbps     38,556 kbps     01:07:24.081    29,562 kbps     01:07:32.840    28,887 kbps     01:07:27.835    132,845 bytes   552,266 bytes   01:07:06.814    
14              1:08:35.444     0:04:27.767     24,754 kbps     36,085 kbps     01:11:35.124    29,121 kbps     01:12:45.319    27,799 kbps     01:12:40.314    129,057 bytes   500,488 bytes   01:10:37.232    
15              1:13:03.212     0:03:52.565     25,684 kbps     47,083 kbps     01:16:10.691    31,045 kbps     01:16:45.267    29,131 kbps     01:16:40.846    133,907 bytes   641,689 bytes   01:16:52.232    
16              1:16:55.777     0:13:42.655     24,680 kbps     36,239 kbps     01:23:25.792    30,306 kbps     01:22:15.430    29,522 kbps     01:22:10.133    128,678 bytes   744,090 bytes   01:23:25.917    

STREAM DIAGNOSTICS:

File            PID             Type            Codec           Language                Seconds                 Bitrate                 Bytes           Packets         
----            ---             ----            -----           --------                --------------          --------------          -------------   -----           
00105.M2TS      4113 (0x1011)   0x1B            AVC                                     2822.862                24,928                  8,796,138,933   47,844,804      
00105.M2TS      4352 (0x1100)   0x86            DTS-HD MA       eng (English)           2822.862                2,628                   927,234,356     5,500,915       
00105.M2TS      4353 (0x1101)   0x86            DTS-HD MA       fra (French)            2822.862                2,657                   937,625,480     5,566,742       
00105.M2TS      4354 (0x1102)   0x86            DTS-HD MA       deu (German)            2822.862                2,646                   933,717,732     5,487,979       
00105.M2TS      4355 (0x1103)   0x81            AC3             ara (Arabic)            2822.862                448                     158,086,656     882,180         
00105.M2TS      4356 (0x1104)   0x81            AC3             nld (Dutch)             2822.862                448                     158,086,656     882,180         
00105.M2TS      4357 (0x1105)   0x81            AC3             tur (Turkish)           2822.862                448                     158,086,656     882,180         
00105.M2TS      4358 (0x1106)   0x81            AC3             eng (English)           2822.862                192                     67,751,424      441,090         
00105.M2TS      4608 (0x1200)   0x90            PGS             eng (English)           2822.862                31                      10,884,223      62,939          
00105.M2TS      4609 (0x1201)   0x90            PGS             fra (French)            2822.862                23                      8,141,704       47,799          
00105.M2TS      4610 (0x1202)   0x90            PGS             deu (German)            2822.862                34                      11,925,104      68,653          
00105.M2TS      4611 (0x1203)   0x90            PGS             ara (Arabic)            2822.862                16                      5,746,844       35,275          
00105.M2TS      4612 (0x1204)   0x90            PGS             nld (Dutch)             2822.862                30                      10,459,856      60,613          
00105.M2TS      4613 (0x1205)   0x90            PGS             tur (Turkish)           2822.862                33                      11,562,592      66,628          
00105.M2TS      4614 (0x1206)   0x90            PGS             fra (French)            2822.862                58                      20,553,929      117,447         
00105.M2TS      4615 (0x1207)   0x90            PGS             deu (German)            2822.862                69                      24,374,383      138,397         
00105.M2TS      4616 (0x1208)   0x90            PGS             nld (Dutch)             2822.862                63                      22,135,132      125,614         
00107.M2TS      4113 (0x1011)   0x1B            AVC                                     2615.404                24,895                  8,138,835,841   44,269,708      
00107.M2TS      4352 (0x1100)   0x86            DTS-HD MA       eng (English)           2615.404                2,575                   841,971,488     4,986,889       
00107.M2TS      4353 (0x1101)   0x86            DTS-HD MA       fra (French)            2615.404                2,579                   843,058,204     4,995,561       
00107.M2TS      4354 (0x1102)   0x86            DTS-HD MA       deu (German)            2615.404                2,554                   835,091,912     4,958,900       
00107.M2TS      4355 (0x1103)   0x81            AC3             ara (Arabic)            2615.404                448                     146,467,328     817,340         
00107.M2TS      4356 (0x1104)   0x81            AC3             nld (Dutch)             2615.404                448                     146,467,328     817,340         
00107.M2TS      4357 (0x1105)   0x81            AC3             tur (Turkish)           2615.404                448                     146,467,328     817,340         
00107.M2TS      4358 (0x1106)   0x81            AC3             eng (English)           2615.404                192                     62,771,712      408,670         
00107.M2TS      4608 (0x1200)   0x90            PGS             eng (English)           2615.404                19                      6,274,270       36,767          
00107.M2TS      4609 (0x1201)   0x90            PGS             fra (French)            2615.404                14                      4,603,091       27,290          
00107.M2TS      4610 (0x1202)   0x90            PGS             deu (German)            2615.404                22                      7,205,796       41,882          
00107.M2TS      4611 (0x1203)   0x90            PGS             ara (Arabic)            2615.404                11                      3,474,397       21,783          
00107.M2TS      4612 (0x1204)   0x90            PGS             nld (Dutch)             2615.404                19                      6,281,721       36,828          
00107.M2TS      4613 (0x1205)   0x90            PGS             tur (Turkish)           2615.404                20                      6,440,725       37,535          
00107.M2TS      4614 (0x1206)   0x90            PGS             fra (French)            2615.404                50                      16,229,298      92,638          
00107.M2TS      4615 (0x1207)   0x90            PGS             deu (German)            2615.404                59                      19,276,138      109,441         
00107.M2TS      4616 (0x1208)   0x90            PGS             nld (Dutch)             2615.404                53                      17,265,069      98,103          

[/code]
<---- END FORUMS PASTE ---->

QUICK SUMMARY:

Disc Title: Monster House – Blu-ray 3D™
Disc Label: Monster.House.3D.2006.BluRay.MULTI.COMPLETE-INSECTS
Disc Size: 41,878,654,305 bytes
Protection: AACS
Playlist: 00001.MPLS
Size: 25,145,776,128 bytes
Length: 1:30:38.432
Total Bitrate: 36.99 Mbps
Video: MPEG-4 AVC Video / 24912 kbps / 1080p / 23.976 fps / 16:9 / High Profile 4.1
Audio: English / DTS-HD Master Audio / 5.1 / 48 kHz /  2603 kbps / 24-bit (DTS Core: 5.1 / 48 kHz /  1509 kbps / 24-bit)
Audio: French / DTS-HD Master Audio / 5.1 / 48 kHz /  2619 kbps / 24-bit (DTS Core: 5.1 / 48 kHz /  1509 kbps / 24-bit)
Audio: German / DTS-HD Master Audio / 5.1 / 48 kHz /  2602 kbps / 24-bit (DTS Core: 5.1 / 48 kHz /  1509 kbps / 24-bit)
Audio: Arabic / Dolby Digital Audio / 5.1 / 48 kHz /   448 kbps / DN -31dB
Audio: Dutch / Dolby Digital Audio / 5.1 / 48 kHz /   448 kbps / DN -31dB
Audio: Turkish / Dolby Digital Audio / 5.1 / 48 kHz /   448 kbps / DN -31dB
Audio: English / Dolby Digital Audio / 2.0 / 48 kHz /   192 kbps / DN -31dB / Dolby Surround
Subtitle: English / 25.240 kbps
Subtitle: French / 18.748 kbps
Subtitle: German / 28.142 kbps
Subtitle: Arabic / 13.565 kbps
Subtitle: Dutch / 24.627 kbps
Subtitle: Turkish / 26.483 kbps
Subtitle: French / 54.109 kbps
Subtitle: German / 64.210 kbps
Subtitle: Dutch / 57.958 kbps


********************
PLAYLIST: 00002.MPLS
********************

<--- BEGIN FORUMS PASTE --->
[code]
                                                                                                                Total   Video                                             
Title                                                           Codec   Length  Movie Size      Disc Size       Bitrate Bitrate Main Audio Track                          Secondary Audio Track
-----                                                           ------  ------- --------------  --------------  ------- ------- ------------------                        ---------------------
00002.MPLS                                                      AVC     1:30:38 25,145,776,128  41,878,654,305  36.99   24.91   DTS-HD Master 5.1 2603Kbps (48kHz/24-bit) 
[/code]

[code]

DISC INFO:

Disc Title:     Monster House – Blu-ray 3D™
Disc Label:     Monster.House.3D.2006.BluRay.MULTI.COMPLETE-INSECTS
Disc Size:      41,878,654,305 bytes
Protection:     AACS
Extras:         BD-Java
BDInfo:         0.7.5.5

PLAYLIST REPORT:

Name:                   00002.MPLS
Length:                 1:30:38.432 (h:m:s.ms)
Size:                   25,145,776,128 bytes
Total Bitrate:          36.99 Mbps

VIDEO:

Codec                   Bitrate             Description     
-----                   -------             -----------     
MPEG-4 AVC Video        24912 kbps          1080p / 23.976 fps / 16:9 / High Profile 4.1

AUDIO:

Codec                           Language        Bitrate         Description     
-----                           --------        -------         -----------     
DTS-HD Master Audio             English         2603 kbps       5.1 / 48 kHz /  2603 kbps / 24-bit (DTS Core: 5.1 / 48 kHz /  1509 kbps / 24-bit)
DTS-HD Master Audio             French          2619 kbps       5.1 / 48 kHz /  2619 kbps / 24-bit (DTS Core: 5.1 / 48 kHz /  1509 kbps / 24-bit)
DTS-HD Master Audio             German          2602 kbps       5.1 / 48 kHz /  2602 kbps / 24-bit (DTS Core: 5.1 / 48 kHz /  1509 kbps / 24-bit)
Dolby Digital Audio             Arabic          448 kbps        5.1 / 48 kHz /   448 kbps / DN -31dB
Dolby Digital Audio             Dutch           448 kbps        5.1 / 48 kHz /   448 kbps / DN -31dB
Dolby Digital Audio             Turkish         448 kbps        5.1 / 48 kHz /   448 kbps / DN -31dB
Dolby Digital Audio             English         192 kbps        2.0 / 48 kHz /   192 kbps / DN -31dB / Dolby Surround

SUBTITLES:

Codec                           Language        Bitrate         Description     
-----                           --------        -------         -----------     
Presentation Graphics           English         25.240 kbps                     
Presentation Graphics           French          18.748 kbps                     
Presentation Graphics           German          28.142 kbps                     
Presentation Graphics           Arabic          13.565 kbps                     
Presentation Graphics           Dutch           24.627 kbps                     
Presentation Graphics           Turkish         26.483 kbps                     
Presentation Graphics           French          54.109 kbps                     
Presentation Graphics           German          64.210 kbps                     
Presentation Graphics           Dutch           57.958 kbps                     

FILES:

Name            Time In         Length          Size            Total Bitrate   
----            -------         ------          ----            -------------   
00105.M2TS      0:00:00.000     0:47:02.945     13,114,748,928  37,166          
00107.M2TS      0:47:02.945     0:43:35.487     12,031,027,200  36,799          

CHAPTERS:

Number          Time In         Length          Avg Video Rate  Max 1-Sec Rate  Max 1-Sec Time  Max 5-Sec Rate  Max 5-Sec Time  Max 10Sec Rate  Max 10Sec Time  Avg Frame Size  Max Frame Size  Max Frame Time  
------          -------         ------          --------------  --------------  --------------  --------------  --------------  --------------  --------------  --------------  --------------  --------------  
1               0:00:00.000     0:06:34.769     24,831 kbps     47,135 kbps     00:00:40.331    30,577 kbps     00:00:02.502    29,199 kbps     00:00:02.502    129,446 bytes   762,352 bytes   00:00:40.415    
2               0:06:34.769     0:07:01.504     25,157 kbps     39,770 kbps     00:10:29.211    30,002 kbps     00:09:30.486    28,139 kbps     00:09:30.611    131,159 bytes   666,514 bytes   00:08:07.361    
3               0:13:36.273     0:03:09.480     24,712 kbps     35,953 kbps     00:14:04.176    27,922 kbps     00:13:52.081    27,247 kbps     00:13:47.076    128,835 bytes   648,329 bytes   00:14:52.057    
4               0:16:45.754     0:03:38.468     24,508 kbps     38,228 kbps     00:18:37.366    28,323 kbps     00:19:59.907    26,529 kbps     00:17:17.411    127,773 bytes   544,873 bytes   00:17:48.233    
5               0:20:24.223     0:03:35.465     24,755 kbps     36,839 kbps     00:21:06.682    30,006 kbps     00:21:06.682    27,214 kbps     00:21:06.682    129,059 bytes   635,148 bytes   00:21:20.946    
6               0:23:59.688     0:02:36.865     25,212 kbps     45,805 kbps     00:26:03.812    29,315 kbps     00:26:00.267    28,086 kbps     00:26:08.358    131,444 bytes   599,013 bytes   00:26:35.051    
7               0:26:36.553     0:06:27.720     25,386 kbps     43,941 kbps     00:31:50.575    31,332 kbps     00:31:47.572    29,823 kbps     00:31:30.013    132,353 bytes   710,052 bytes   00:31:55.747    
8               0:33:04.273     0:06:13.122     24,565 kbps     38,965 kbps     00:38:31.642    28,555 kbps     00:37:46.973    27,509 kbps     00:37:42.009    128,073 bytes   632,403 bytes   00:38:18.045    
9               0:39:17.396     0:07:03.631     24,930 kbps     40,733 kbps     00:45:15.546    31,612 kbps     00:45:11.417    29,950 kbps     00:44:50.729    129,972 bytes   728,356 bytes   00:46:15.564    
10              0:46:21.028     0:07:20.439     24,950 kbps     49,534 kbps     00:49:11.281    32,531 kbps     00:49:07.235    29,304 kbps     00:50:09.464    130,080 bytes   658,421 bytes   00:49:01.021    
11              0:53:41.468     0:06:41.943     25,078 kbps     42,544 kbps     00:54:50.537    31,279 kbps     00:59:42.745    29,710 kbps     01:00:03.266    130,745 bytes   649,892 bytes   00:56:05.403    
12              1:00:23.411     0:05:17.525     24,431 kbps     41,265 kbps     01:02:21.654    28,525 kbps     01:02:18.568    26,598 kbps     01:02:29.537    127,373 bytes   626,740 bytes   01:03:44.695    
13              1:05:40.936     0:02:54.507     25,481 kbps     38,556 kbps     01:07:24.081    29,562 kbps     01:07:32.840    28,887 kbps     01:07:27.835    132,845 bytes   552,266 bytes   01:07:06.814    
14              1:08:35.444     0:04:27.767     24,754 kbps     36,085 kbps     01:11:35.124    29,121 kbps     01:12:45.319    27,799 kbps     01:12:40.314    129,057 bytes   500,488 bytes   01:10:37.232    
15              1:13:03.212     0:03:52.565     25,684 kbps     47,083 kbps     01:16:10.691    31,045 kbps     01:16:45.267    29,131 kbps     01:16:40.846    133,907 bytes   641,689 bytes   01:16:52.232    
16              1:16:55.777     0:13:42.655     24,680 kbps     36,239 kbps     01:23:25.792    30,306 kbps     01:22:15.430    29,522 kbps     01:22:10.133    128,678 bytes   744,090 bytes   01:23:25.917    

STREAM DIAGNOSTICS:

File            PID             Type            Codec           Language                Seconds                 Bitrate                 Bytes           Packets         
----            ---             ----            -----           --------                --------------          --------------          -------------   -----           
00105.M2TS      4113 (0x1011)   0x1B            AVC                                     2822.862                24,928                  8,796,138,933   47,844,804      
00105.M2TS      4352 (0x1100)   0x86            DTS-HD MA       eng (English)           2822.862                2,628                   927,234,356     5,500,915       
00105.M2TS      4353 (0x1101)   0x86            DTS-HD MA       fra (French)            2822.862                2,657                   937,625,480     5,566,742       
00105.M2TS      4354 (0x1102)   0x86            DTS-HD MA       deu (German)            2822.862                2,646                   933,717,732     5,487,979       
00105.M2TS      4355 (0x1103)   0x81            AC3             ara (Arabic)            2822.862                448                     158,086,656     882,180         
00105.M2TS      4356 (0x1104)   0x81            AC3             nld (Dutch)             2822.862                448                     158,086,656     882,180         
00105.M2TS      4357 (0x1105)   0x81            AC3             tur (Turkish)           2822.862                448                     158,086,656     882,180         
00105.M2TS      4358 (0x1106)   0x81            AC3             eng (English)           2822.862                192                     67,751,424      441,090         
00105.M2TS      4608 (0x1200)   0x90            PGS             eng (English)           2822.862                31                      10,884,223      62,939          
00105.M2TS      4609 (0x1201)   0x90            PGS             fra (French)            2822.862                23                      8,141,704       47,799          
00105.M2TS      4610 (0x1202)   0x90            PGS             deu (German)            2822.862                34                      11,925,104      68,653          
00105.M2TS      4611 (0x1203)   0x90            PGS             ara (Arabic)            2822.862                16                      5,746,844       35,275          
00105.M2TS      4612 (0x1204)   0x90            PGS             nld (Dutch)             2822.862                30                      10,459,856      60,613          
00105.M2TS      4613 (0x1205)   0x90            PGS             tur (Turkish)           2822.862                33                      11,562,592      66,628          
00105.M2TS      4614 (0x1206)   0x90            PGS             fra (French)            2822.862                58                      20,553,929      117,447         
00105.M2TS      4615 (0x1207)   0x90            PGS             deu (German)            2822.862                69                      24,374,383      138,397         
00105.M2TS      4616 (0x1208)   0x90            PGS             nld (Dutch)             2822.862                63                      22,135,132      125,614         
00107.M2TS      4113 (0x1011)   0x1B            AVC                                     2615.404                24,895                  8,138,835,841   44,269,708      
00107.M2TS      4352 (0x1100)   0x86            DTS-HD MA       eng (English)           2615.404                2,575                   841,971,488     4,986,889       
00107.M2TS      4353 (0x1101)   0x86            DTS-HD MA       fra (French)            2615.404                2,579                   843,058,204     4,995,561       
00107.M2TS      4354 (0x1102)   0x86            DTS-HD MA       deu (German)            2615.404                2,554                   835,091,912     4,958,900       
00107.M2TS      4355 (0x1103)   0x81            AC3             ara (Arabic)            2615.404                448                     146,467,328     817,340         
00107.M2TS      4356 (0x1104)   0x81            AC3             nld (Dutch)             2615.404                448                     146,467,328     817,340         
00107.M2TS      4357 (0x1105)   0x81            AC3             tur (Turkish)           2615.404                448                     146,467,328     817,340         
00107.M2TS      4358 (0x1106)   0x81            AC3             eng (English)           2615.404                192                     62,771,712      408,670         
00107.M2TS      4608 (0x1200)   0x90            PGS             eng (English)           2615.404                19                      6,274,270       36,767          
00107.M2TS      4609 (0x1201)   0x90            PGS             fra (French)            2615.404                14                      4,603,091       27,290          
00107.M2TS      4610 (0x1202)   0x90            PGS             deu (German)            2615.404                22                      7,205,796       41,882          
00107.M2TS      4611 (0x1203)   0x90            PGS             ara (Arabic)            2615.404                11                      3,474,397       21,783          
00107.M2TS      4612 (0x1204)   0x90            PGS             nld (Dutch)             2615.404                19                      6,281,721       36,828          
00107.M2TS      4613 (0x1205)   0x90            PGS             tur (Turkish)           2615.404                20                      6,440,725       37,535          
00107.M2TS      4614 (0x1206)   0x90            PGS             fra (French)            2615.404                50                      16,229,298      92,638          
00107.M2TS      4615 (0x1207)   0x90            PGS             deu (German)            2615.404                59                      19,276,138      109,441         
00107.M2TS      4616 (0x1208)   0x90            PGS             nld (Dutch)             2615.404                53                      17,265,069      98,103          

[/code]
<---- END FORUMS PASTE ---->

QUICK SUMMARY:

Disc Title: Monster House – Blu-ray 3D™
Disc Label: Monster.House.3D.2006.BluRay.MULTI.COMPLETE-INSECTS
Disc Size: 41,878,654,305 bytes
Protection: AACS
Playlist: 00002.MPLS
Size: 25,145,776,128 bytes
Length: 1:30:38.432
Total Bitrate: 36.99 Mbps
Video: MPEG-4 AVC Video / 24912 kbps / 1080p / 23.976 fps / 16:9 / High Profile 4.1
Audio: English / DTS-HD Master Audio / 5.1 / 48 kHz /  2603 kbps / 24-bit (DTS Core: 5.1 / 48 kHz /  1509 kbps / 24-bit)
Audio: French / DTS-HD Master Audio / 5.1 / 48 kHz /  2619 kbps / 24-bit (DTS Core: 5.1 / 48 kHz /  1509 kbps / 24-bit)
Audio: German / DTS-HD Master Audio / 5.1 / 48 kHz /  2602 kbps / 24-bit (DTS Core: 5.1 / 48 kHz /  1509 kbps / 24-bit)
Audio: Arabic / Dolby Digital Audio / 5.1 / 48 kHz /   448 kbps / DN -31dB
Audio: Dutch / Dolby Digital Audio / 5.1 / 48 kHz /   448 kbps / DN -31dB
Audio: Turkish / Dolby Digital Audio / 5.1 / 48 kHz /   448 kbps / DN -31dB
Audio: English / Dolby Digital Audio / 2.0 / 48 kHz /   192 kbps / DN -31dB / Dolby Surround
Subtitle: English / 25.240 kbps
Subtitle: French / 18.748 kbps
Subtitle: German / 28.142 kbps
Subtitle: Arabic / 13.565 kbps
Subtitle: Dutch / 24.627 kbps
Subtitle: Turkish / 26.483 kbps
Subtitle: French / 54.109 kbps
Subtitle: German / 64.210 kbps
Subtitle: Dutch / 57.958 kbps

